<svg xmlns="http://www.w3.org/2000/svg" width="1120" height="620" viewBox="0 0 1120 620" role="img"><title>M1 and M2 endpoint state comparison</title><desc>Top-1 factual accuracy across three language directions and three model states.</desc><style>text{font-family:Arial,sans-serif;fill:#172033} .grid{stroke:#d7dce5;stroke-width:1} .axis{stroke:#4b5563;stroke-width:1} .small{font-size:12px} .label{font-size:13px} .title{font-size:18px;font-weight:700} .note{font-size:11px;fill:#526071} </style><text class="title" x="24" y="30">Endpoint factual access by state</text><rect x="840" y="18" width="12" height="12" fill="('#64748b', '#64748b')"/><text class="small" x="857" y="28">M1</text><rect x="925" y="18" width="12" height="12" fill="('#64748b', '#2563a6')"/><text class="small" x="942" y="28">M2-A</text><rect x="1010" y="18" width="12" height="12" fill="('#64748b', '#d97706')"/><text class="small" x="1027" y="28">M2-B</text><text class="label" x="240.0" y="60" text-anchor="middle">EN-TO-EN</text><line class="grid" x1="75" y1="520.0" x2="405" y2="520.0"/><text class="small" x="67" y="524.0" text-anchor="end">0</text><line class="grid" x1="75" y1="420.0" x2="405" y2="420.0"/><text class="small" x="67" y="424.0" text-anchor="end">25</text><line class="grid" x1="75" y1="320.0" x2="405" y2="320.0"/><text class="small" x="67" y="324.0" text-anchor="end">50</text><line class="grid" x1="75" y1="220.0" x2="405" y2="220.0"/><text class="small" x="67" y="224.0" text-anchor="end">75</text><line class="grid" x1="75" y1="120.0" x2="405" y2="120.0"/><text class="small" x="67" y="124.0" text-anchor="end">100</text><line class="axis" x1="75" y1="120" x2="75" y2="520"/><line class="axis" x1="75" y1="520" x2="405" y2="520"/><rect x="96.0" y="131.0" width="20" height="389.0" fill="#64748b"/><text class="small" x="106.0" y="127.0" text-anchor="middle">97.2</text><rect x="120.0" y="143.6" width="20" height="376.4" fill="#2563a6"/><text class="small" x="130.0" y="139.6" text-anchor="middle">94.1</text><rect x="144.0" y="141.6" width="20" height="378.4" fill="#d97706"/><text class="small" x="154.0" y="137.6" text-anchor="middle">94.6</text><text class="small" x="130" y="545" text-anchor="middle">OLMo</text><rect x="206.0" y="128.0" width="20" height="392.0" fill="#64748b"/><text class="small" x="216.0" y="124.0" text-anchor="middle">98.0</text><rect x="230.0" y="129.2" width="20" height="390.8" fill="#2563a6"/><text class="small" x="240.0" y="125.2" text-anchor="middle">97.7</text><rect x="254.0" y="126.3" width="20" height="393.7" fill="#d97706"/><text class="small" x="264.0" y="122.3" text-anchor="middle">98.4</text><text class="small" x="240" y="545" text-anchor="middle">Qwen</text><rect x="316.0" y="195.2" width="20" height="324.8" fill="#64748b"/><text class="small" x="326.0" y="191.2" text-anchor="middle">81.2</text><rect x="340.0" y="223.8" width="20" height="296.2" fill="#2563a6"/><text class="small" x="350.0" y="219.8" text-anchor="middle">74.0</text><rect x="364.0" y="227.6" width="20" height="292.4" fill="#d97706"/><text class="small" x="374.0" y="223.6" text-anchor="middle">73.1</text><text class="small" x="350" y="545" text-anchor="middle">SmolLM</text><text class="label" x="590.0" y="60" text-anchor="middle">TR-TO-EN</text><line class="grid" x1="425" y1="520.0" x2="755" y2="520.0"/><text class="small" x="417" y="524.0" text-anchor="end">0</text><line class="grid" x1="425" y1="420.0" x2="755" y2="420.0"/><text class="small" x="417" y="424.0" text-anchor="end">25</text><line class="grid" x1="425" y1="320.0" x2="755" y2="320.0"/><text class="small" x="417" y="324.0" text-anchor="end">50</text><line class="grid" x1="425" y1="220.0" x2="755" y2="220.0"/><text class="small" x="417" y="224.0" text-anchor="end">75</text><line class="grid" x1="425" y1="120.0" x2="755" y2="120.0"/><text class="small" x="417" y="124.0" text-anchor="end">100</text><line class="axis" x1="425" y1="120" x2="425" y2="520"/><line class="axis" x1="425" y1="520" x2="755" y2="520"/><rect x="446.0" y="426.5" width="20" height="93.5" fill="#64748b"/><text class="small" x="456.0" y="422.5" text-anchor="middle">23.4</text><rect x="470.0" y="482.9" width="20" height="37.1" fill="#2563a6"/><text class="small" x="480.0" y="478.9" text-anchor="middle">9.3</text><rect x="494.0" y="474.9" width="20" height="45.1" fill="#d97706"/><text class="small" x="504.0" y="470.9" text-anchor="middle">11.3</text><text class="small" x="480" y="545" text-anchor="middle">OLMo</text><rect x="556.0" y="214.6" width="20" height="305.4" fill="#64748b"/><text class="small" x="566.0" y="210.6" text-anchor="middle">76.3</text><rect x="580.0" y="337.4" width="20" height="182.6" fill="#2563a6"/><text class="small" x="590.0" y="333.4" text-anchor="middle">45.6</text><rect x="604.0" y="320.0" width="20" height="200.0" fill="#d97706"/><text class="small" x="614.0" y="316.0" text-anchor="middle">50.0</text><text class="small" x="590" y="545" text-anchor="middle">Qwen</text><rect x="666.0" y="402.0" width="20" height="118.0" fill="#64748b"/><text class="small" x="676.0" y="398.0" text-anchor="middle">29.5</text><rect x="690.0" y="466.7" width="20" height="53.3" fill="#2563a6"/><text class="small" x="700.0" y="462.7" text-anchor="middle">13.3</text><rect x="714.0" y="465.3" width="20" height="54.7" fill="#d97706"/><text class="small" x="724.0" y="461.3" text-anchor="middle">13.7</text><text class="small" x="700" y="545" text-anchor="middle">SmolLM</text><text class="label" x="940.0" y="60" text-anchor="middle">TR-TO-TR</text><line class="grid" x1="775" y1="520.0" x2="1105" y2="520.0"/><text class="small" x="767" y="524.0" text-anchor="end">0</text><line class="grid" x1="775" y1="420.0" x2="1105" y2="420.0"/><text class="small" x="767" y="424.0" text-anchor="end">25</text><line class="grid" x1="775" y1="320.0" x2="1105" y2="320.0"/><text class="small" x="767" y="324.0" text-anchor="end">50</text><line class="grid" x1="775" y1="220.0" x2="1105" y2="220.0"/><text class="small" x="767" y="224.0" text-anchor="end">75</text><line class="grid" x1="775" y1="120.0" x2="1105" y2="120.0"/><text class="small" x="767" y="124.0" text-anchor="end">100</text><line class="axis" x1="775" y1="120" x2="775" y2="520"/><line class="axis" x1="775" y1="520" x2="1105" y2="520"/><rect x="796.0" y="471.3" width="20" height="48.7" fill="#64748b"/><text class="small" x="806.0" y="467.3" text-anchor="middle">12.2</text><rect x="820.0" y="499.1" width="20" height="20.9" fill="#2563a6"/><text class="small" x="830.0" y="495.1" text-anchor="middle">5.2</text><rect x="844.0" y="492.5" width="20" height="27.5" fill="#d97706"/><text class="small" x="854.0" y="488.5" text-anchor="middle">6.9</text><text class="small" x="830" y="545" text-anchor="middle">OLMo</text><rect x="906.0" y="393.8" width="20" height="126.2" fill="#64748b"/><text class="small" x="916.0" y="389.8" text-anchor="middle">31.6</text><rect x="930.0" y="412.1" width="20" height="107.9" fill="#2563a6"/><text class="small" x="940.0" y="408.1" text-anchor="middle">27.0</text><rect x="954.0" y="388.5" width="20" height="131.5" fill="#d97706"/><text class="small" x="964.0" y="384.5" text-anchor="middle">32.9</text><text class="small" x="940" y="545" text-anchor="middle">Qwen</text><rect x="1016.0" y="458.3" width="20" height="61.7" fill="#64748b"/><text class="small" x="1026.0" y="454.3" text-anchor="middle">15.4</text><rect x="1040.0" y="493.4" width="20" height="26.6" fill="#2563a6"/><text class="small" x="1050.0" y="489.4" text-anchor="middle">6.7</text><rect x="1064.0" y="492.5" width="20" height="27.5" fill="#d97706"/><text class="small" x="1074.0" y="488.5" text-anchor="middle">6.9</text><text class="small" x="1050" y="545" text-anchor="middle">SmolLM</text><text class="note" x="75" y="590">Endpoint denominator: 4,000 prompts per direction and state. M2-A and M2-B are parallel sibling arms from the same M1 parent.</text></svg>